<svg xmlns="http://www.w3.org/2000/svg" width="209" height="66" viewBox="0 0 209 66"><path fill="#0b0b15" d="M19.50 30.30L19.20 32.30Q19 33.10 18.80 34.50L18.80 34.50L-20.50 30.30L19.50 30.30ZM-21.60 39.90L18.10 39.90Q17.80 42.20 17.80 44.10L17.80 44.10L-21.60 39.90ZM-18.10 20.70L21.90 20.70L20.70 24.80L-18.10 20.70ZM-20.30 49.50L17.90 49.50Q18.30 52.30 18.60 53.70L18.60 53.70L-20.30 49.50ZM-13.40 11.10L26 11.10Q24.60 13.70 24 15.10L24 15.10L-13.40 11.10ZM-10.70 59.20L20.90 59.20Q22.20 61.50 23.90 62.90L23.90 62.90L-10.70 59.20ZM0.40 1.50L35.50 1.50Q32.60 3.30 31 4.80L31 4.80L0.40 1.50ZM44.30 65.50L44.30 65.50Q31.70 65.50 26.25 60.60Q20.80 55.70 20.80 45.50L20.80 45.50Q20.80 41.20 22.20 32.80L22.20 32.80Q25.20 15.60 32.55 7.80Q39.90 0 55.80 0L55.80 0Q59.50 0 64.25 0.75Q69 1.50 71.20 2.60L71.20 2.60L65.60 17.90Q59.70 16.50 54.55 16.50Q49.40 16.50 47.20 17.50Q45 18.50 44.50 21.50L44.50 21.50L39.90 47.70Q43.50 48.50 47.30 48.50L47.30 48.50Q55.40 48.50 62.10 46.10L62.10 46.10L60.50 62.90Q54.10 65.50 44.30 65.50ZM99.70 1.50L129.70 1.50Q146.80 1.50 146.80 16.80L146.80 16.80Q146.80 23.10 144.90 28.80L144.90 28.80Q141.40 39.60 133.90 43.20L133.90 43.20L140.50 64L119.60 64L115 45.40L110.90 45.40L107.70 64L88.70 64L99.70 1.50ZM113.60 30L118 30Q121.40 30 123.15 29.25Q124.90 28.50 125.55 24.95Q126.20 21.40 126.20 20.60L126.20 20.60Q126.20 18.60 124.65 18.05Q123.10 17.50 119.60 17.50L119.60 17.50L115.80 17.50L113.60 30ZM86.50 59.20L85.70 63.70L43.30 59.20L86.50 59.20ZM89.90 39.90L89.10 44.40L46.70 39.90L89.90 39.90ZM93.20 20.70L92.40 25.20L50.10 20.70L93.20 20.70ZM94.90 11.10L94.10 15.60L51.80 11.10L94.90 11.10ZM88.20 49.50L87.40 54L45 49.50L88.20 49.50ZM96.60 1.50L95.80 6L53.50 1.50L96.60 1.50ZM91.50 30.30L90.70 34.80L48.40 30.30L91.50 30.30ZM209 48L206.20 64L168.20 64L179.20 1.50L198.20 1.50L190 48L209 48ZM166 59.20L165.20 63.70L122.80 59.20L166 59.20ZM169.40 39.90L168.60 44.40L126.20 39.90L169.40 39.90ZM171.10 30.30L170.30 34.80L127.90 30.30L171.10 30.30ZM172.80 20.70L172 25.20L129.60 20.70L172.80 20.70ZM174.40 11.10L173.70 15.60L131.30 11.10L174.40 11.10ZM167.70 49.50L166.90 54L124.50 49.50L167.70 49.50ZM176.10 1.50L175.30 6L133 1.50L176.10 1.50Z"></path></svg>